<?xml version="1.0" standalone="no"?>
<!DOCTYPE svg PUBLIC "-//W3C//DTD SVG 20010904//EN"
 "http://www.w3.org/TR/2001/REC-SVG-20010904/DTD/svg10.dtd">
<svg version="1.0" xmlns="http://www.w3.org/2000/svg"
 width="512.000000pt" height="512.000000pt" viewBox="0 0 512.000000 512.000000"
 preserveAspectRatio="xMidYMid meet">

<g transform="translate(0.000000,512.000000) scale(0.100000,-0.100000)"
fill="#F28B04" stroke="none">
<path d="M2285 5114 c-442 -32 -687 -69 -975 -145 -477 -127 -806 -340 -850
-554 -7 -36 -10 -175 -8 -412 3 -343 4 -360 25 -403 153 -318 755 -551 1633
-632 174 -16 726 -16 900 0 797 74 1373 274 1582 550 78 102 79 114 76 539
l-3 368 -27 55 c-150 302 -735 533 -1553 615 -140 14 -689 27 -800 19z"/>
<path d="M453 2735 l2 -550 26 -56 c51 -109 203 -241 378 -329 304 -152 771
-260 1296 -300 181 -14 629 -14 815 0 510 38 990 149 1281 295 189 95 326 212
381 323 l33 67 2 550 3 550 -30 -62 c-144 -295 -742 -534 -1530 -613 -315 -31
-791 -31 -1097 0 -795 81 -1398 322 -1533 613 l-29 62 2 -550z"/>
<path d="M451 1275 c-1 -413 2 -542 12 -582 67 -256 501 -488 1137 -607 326
-61 558 -80 960 -80 327 0 458 7 710 40 713 93 1231 318 1368 594 l27 55 2
555 c1 410 -1 547 -9 525 -103 -284 -619 -523 -1348 -624 -284 -40 -388 -46
-760 -45 -368 0 -492 8 -780 50 -444 64 -849 197 -1078 353 -106 72 -196 175
-227 260 -12 31 -14 -41 -14 -494z"/>
</g>
</svg>
